<svg width="70" height="20" viewBox="0 0 70 20" fill="none" xmlns="http://www.w3.org/2000/svg">
<path d="M36.8589 5.94948L34.4349 14.3135H33.2109L31.2669 7.58148L29.2509 14.3135L28.0389 14.3255L25.6989 5.94948H26.8629L28.6869 13.0415L30.7029 5.94948H31.9269L33.8469 13.0175L35.6829 5.94948H36.8589ZM42.9979 12.4535H39.3499L38.6779 14.3135H37.5259L40.5499 5.99748H41.8099L44.8219 14.3135H43.6699L42.9979 12.4535ZM42.6859 11.5655L41.1739 7.34148L39.6619 11.5655H42.6859ZM51.2878 5.94948V6.83748H49.0078V14.3135H47.9158V6.83748H45.6238V5.94948H51.2878ZM52.224 10.1255C52.224 9.30948 52.408 8.57748 52.776 7.92948C53.144 7.27348 53.644 6.76148 54.276 6.39348C54.916 6.02548 55.624 5.84148 56.4 5.84148C57.312 5.84148 58.108 6.06148 58.788 6.50148C59.468 6.94148 59.964 7.56548 60.276 8.37348H58.968C58.736 7.86948 58.4 7.48148 57.96 7.20948C57.528 6.93748 57.008 6.80148 56.4 6.80148C55.816 6.80148 55.292 6.93748 54.828 7.20948C54.364 7.48148 54 7.86948 53.736 8.37348C53.472 8.86948 53.34 9.45348 53.34 10.1255C53.34 10.7895 53.472 11.3735 53.736 11.8775C54 12.3735 54.364 12.7575 54.828 13.0295C55.292 13.3015 55.816 13.4375 56.4 13.4375C57.008 13.4375 57.528 13.3055 57.96 13.0415C58.4 12.7695 58.736 12.3815 58.968 11.8775H60.276C59.964 12.6775 59.468 13.2975 58.788 13.7375C58.108 14.1695 57.312 14.3855 56.4 14.3855C55.624 14.3855 54.916 14.2055 54.276 13.8455C53.644 13.4775 53.144 12.9695 52.776 12.3215C52.408 11.6735 52.224 10.9415 52.224 10.1255ZM68.3455 5.94948V14.3135H67.2535V10.5215H62.9935V14.3135H61.9015V5.94948H62.9935V9.62148H67.2535V5.94948H68.3455Z" fill="#1617DB"/>
<path d="M5.20082 19.3134C2.42608 19.2974 0.130859 13.6332 0.130859 10.7486C0.130859 6.03654 3.6657 5.00495 5.028 5.00495C5.64194 5.00495 6.29749 5.24604 6.8757 5.45939C7.28003 5.60821 7.69821 5.76184 7.93078 5.76184C8.06999 5.76184 8.39804 5.63115 8.68767 5.51649C9.30535 5.27058 10.074 4.96497 10.969 4.96497C10.9706 4.96497 10.9728 4.96497 10.9743 4.96497C11.6427 4.96497 13.6691 5.11164 14.8874 6.9412L15.1727 7.37004L14.762 7.67996C14.1753 8.12267 13.1047 8.93025 13.1047 10.5299C13.1047 12.4246 14.3172 13.1532 14.8996 13.5036C15.1567 13.6583 15.4229 13.8178 15.4229 14.1667C15.4229 14.3944 13.6051 19.2852 10.9653 19.2852C10.3193 19.2852 9.86273 19.091 9.46 18.9198C9.0525 18.7464 8.70096 18.5971 8.12009 18.5971C7.82565 18.5971 7.45333 18.7363 7.05915 18.8841C6.52048 19.0851 5.91078 19.3134 5.21896 19.3134H5.20082Z" fill="#1617DB"/>
<path d="M11.2487 0.669678C11.3174 3.14856 9.54462 4.8683 7.7739 4.76045C7.48212 2.78221 9.5444 0.669678 11.2487 0.669678Z" fill="#1617DB"/>
</svg>
