<svg width="45" height="14" viewBox="0 0 45 14" fill="none" xmlns="http://www.w3.org/2000/svg">
<path d="M3.1416 11.2246H8.74023V13.3428H0.504883V0.545898H3.1416V11.2246ZM20.21 7.23438C20.21 8.49414 19.9873 9.59863 19.542 10.5479C19.0967 11.4971 18.458 12.2295 17.626 12.7451C16.7998 13.2607 15.8506 13.5186 14.7783 13.5186C13.7178 13.5186 12.7715 13.2637 11.9395 12.7539C11.1074 12.2441 10.4629 11.5176 10.0059 10.5742C9.54883 9.625 9.31738 8.53516 9.31152 7.30469V6.67188C9.31152 5.41211 9.53711 4.30469 9.98828 3.34961C10.4453 2.38867 11.0869 1.65332 11.9131 1.14355C12.7451 0.62793 13.6943 0.370117 14.7607 0.370117C15.8271 0.370117 16.7734 0.62793 17.5996 1.14355C18.4316 1.65332 19.0732 2.38867 19.5244 3.34961C19.9814 4.30469 20.21 5.40918 20.21 6.66309V7.23438ZM17.5381 6.6543C17.5381 5.3125 17.2979 4.29297 16.8174 3.5957C16.3369 2.89844 15.6514 2.5498 14.7607 2.5498C13.876 2.5498 13.1934 2.89551 12.7129 3.58691C12.2324 4.27246 11.9893 5.28027 11.9834 6.61035V7.23438C11.9834 8.54102 12.2236 9.55469 12.7041 10.2754C13.1846 10.9961 13.876 11.3564 14.7783 11.3564C15.6631 11.3564 16.3428 11.0107 16.8174 10.3193C17.292 9.62207 17.5322 8.6084 17.5381 7.27832V6.6543ZM32.251 11.7256C31.7764 12.2939 31.1055 12.7363 30.2383 13.0527C29.3711 13.3633 28.4102 13.5186 27.3555 13.5186C26.248 13.5186 25.2754 13.2783 24.4375 12.7979C23.6055 12.3115 22.9609 11.6084 22.5039 10.6885C22.0527 9.76855 21.8213 8.6875 21.8096 7.44531V6.5752C21.8096 5.29785 22.0234 4.19336 22.4512 3.26172C22.8848 2.32422 23.5059 1.60938 24.3145 1.11719C25.1289 0.619141 26.0811 0.370117 27.1709 0.370117C28.6885 0.370117 29.875 0.733398 30.7305 1.45996C31.5859 2.18066 32.0928 3.23242 32.251 4.61523H29.6846C29.5674 3.88281 29.3066 3.34668 28.9023 3.00684C28.5039 2.66699 27.9531 2.49707 27.25 2.49707C26.3535 2.49707 25.6709 2.83398 25.2021 3.50781C24.7334 4.18164 24.4961 5.18359 24.4902 6.51367V7.33105C24.4902 8.67285 24.7451 9.68652 25.2549 10.3721C25.7646 11.0576 26.5117 11.4004 27.4961 11.4004C28.4863 11.4004 29.1924 11.1895 29.6143 10.7676V8.56152H27.2148V6.61914H32.251V11.7256ZM44.9072 7.23438C44.9072 8.49414 44.6846 9.59863 44.2393 10.5479C43.7939 11.4971 43.1553 12.2295 42.3232 12.7451C41.4971 13.2607 40.5479 13.5186 39.4756 13.5186C38.415 13.5186 37.4688 13.2637 36.6367 12.7539C35.8047 12.2441 35.1602 11.5176 34.7031 10.5742C34.2461 9.625 34.0146 8.53516 34.0088 7.30469V6.67188C34.0088 5.41211 34.2344 4.30469 34.6855 3.34961C35.1426 2.38867 35.7842 1.65332 36.6104 1.14355C37.4424 0.62793 38.3916 0.370117 39.458 0.370117C40.5244 0.370117 41.4707 0.62793 42.2969 1.14355C43.1289 1.65332 43.7705 2.38867 44.2217 3.34961C44.6787 4.30469 44.9072 5.40918 44.9072 6.66309V7.23438ZM42.2354 6.6543C42.2354 5.3125 41.9951 4.29297 41.5146 3.5957C41.0342 2.89844 40.3486 2.5498 39.458 2.5498C38.5732 2.5498 37.8906 2.89551 37.4102 3.58691C36.9297 4.27246 36.6865 5.28027 36.6807 6.61035V7.23438C36.6807 8.54102 36.9209 9.55469 37.4014 10.2754C37.8818 10.9961 38.5732 11.3564 39.4756 11.3564C40.3604 11.3564 41.04 11.0107 41.5146 10.3193C41.9893 9.62207 42.2295 8.6084 42.2354 7.27832V6.6543Z" fill="#01010D"/>
</svg>
